<?xml version="1.0" encoding="UTF-8"?>
<!DOCTYPE svg PUBLIC "-//W3C//DTD SVG 1.1//EN" "http://www.w3.org/Graphics/SVG/1.1/DTD/svg11.dtd">
<svg version="1.2" width="78.55mm" height="77.57mm" viewBox="0 0 7855 7757" preserveAspectRatio="xMidYMid" fill-rule="evenodd" stroke-width="28.222" stroke-linejoin="round" xmlns="http://www.w3.org/2000/svg" xmlns:ooo="http://xml.openoffice.org/svg/export" xmlns:xlink="http://www.w3.org/1999/xlink" xmlns:presentation="http://sun.com/xmlns/staroffice/presentation" xmlns:smil="http://www.w3.org/2001/SMIL20/" xmlns:anim="urn:oasis:names:tc:opendocument:xmlns:animation:1.0" xml:space="preserve">
 <defs class="ClipPathGroup">
  <clipPath id="presentation_clip_path" clipPathUnits="userSpaceOnUse">
   <rect x="0" y="0" width="7855" height="7757"/>
  </clipPath>
  <clipPath id="presentation_clip_path_shrink" clipPathUnits="userSpaceOnUse">
   <rect x="7" y="7" width="7840" height="7742"/>
  </clipPath>
 </defs>
 <defs class="TextShapeIndex">
  <g ooo:slide="id1" ooo:id-list="id3"/>
 </defs>
 <defs class="EmbeddedBulletChars">
  <g id="bullet-char-template-57356" transform="scale(0.00048828125,-0.00048828125)">
   <path d="M 580,1141 L 1163,571 580,0 -4,571 580,1141 Z"/>
  </g>
  <g id="bullet-char-template-57354" transform="scale(0.00048828125,-0.00048828125)">
   <path d="M 8,1128 L 1137,1128 1137,0 8,0 8,1128 Z"/>
  </g>
  <g id="bullet-char-template-10146" transform="scale(0.00048828125,-0.00048828125)">
   <path d="M 174,0 L 602,739 174,1481 1456,739 174,0 Z M 1358,739 L 309,1346 659,739 1358,739 Z"/>
  </g>
  <g id="bullet-char-template-10132" transform="scale(0.00048828125,-0.00048828125)">
   <path d="M 2015,739 L 1276,0 717,0 1260,543 174,543 174,936 1260,936 717,1481 1274,1481 2015,739 Z"/>
  </g>
  <g id="bullet-char-template-10007" transform="scale(0.00048828125,-0.00048828125)">
   <path d="M 0,-2 C -7,14 -16,27 -25,37 L 356,567 C 262,823 215,952 215,954 215,979 228,992 255,992 264,992 276,990 289,987 310,991 331,999 354,1012 L 381,999 492,748 772,1049 836,1024 860,1049 C 881,1039 901,1025 922,1006 886,937 835,863 770,784 769,783 710,716 594,584 L 774,223 C 774,196 753,168 711,139 L 727,119 C 717,90 699,76 672,76 641,76 570,178 457,381 L 164,-76 C 142,-110 111,-127 72,-127 30,-127 9,-110 8,-76 1,-67 -2,-52 -2,-32 -2,-23 -1,-13 0,-2 Z"/>
  </g>
  <g id="bullet-char-template-10004" transform="scale(0.00048828125,-0.00048828125)">
   <path d="M 285,-33 C 182,-33 111,30 74,156 52,228 41,333 41,471 41,549 55,616 82,672 116,743 169,778 240,778 293,778 328,747 346,684 L 369,508 C 377,444 397,411 428,410 L 1163,1116 C 1174,1127 1196,1133 1229,1133 1271,1133 1292,1118 1292,1087 L 1292,965 C 1292,929 1282,901 1262,881 L 442,47 C 390,-6 338,-33 285,-33 Z"/>
  </g>
  <g id="bullet-char-template-9679" transform="scale(0.00048828125,-0.00048828125)">
   <path d="M 813,0 C 632,0 489,54 383,161 276,268 223,411 223,592 223,773 276,916 383,1023 489,1130 632,1184 813,1184 992,1184 1136,1130 1245,1023 1353,916 1407,772 1407,592 1407,412 1353,268 1245,161 1136,54 992,0 813,0 Z"/>
  </g>
  <g id="bullet-char-template-8226" transform="scale(0.00048828125,-0.00048828125)">
   <path d="M 346,457 C 273,457 209,483 155,535 101,586 74,649 74,723 74,796 101,859 155,911 209,963 273,989 346,989 419,989 480,963 531,910 582,859 608,796 608,723 608,648 583,586 532,535 482,483 420,457 346,457 Z"/>
  </g>
  <g id="bullet-char-template-8211" transform="scale(0.00048828125,-0.00048828125)">
   <path d="M -4,459 L 1135,459 1135,606 -4,606 -4,459 Z"/>
  </g>
  <g id="bullet-char-template-61548" transform="scale(0.00048828125,-0.00048828125)">
   <path d="M 173,740 C 173,903 231,1043 346,1159 462,1274 601,1332 765,1332 928,1332 1067,1274 1183,1159 1299,1043 1357,903 1357,740 1357,577 1299,437 1183,322 1067,206 928,148 765,148 601,148 462,206 346,322 231,437 173,577 173,740 Z"/>
  </g>
 </defs>
 <defs class="TextEmbeddedBitmaps"/>
 <g>
  <g id="id2" class="Master_Slide">
   <g id="bg-id2" class="Background"/>
   <g id="bo-id2" class="BackgroundObjects"/>
  </g>
 </g>
 <g class="SlideGroup">
  <g>
   <g id="container-id1">
    <g id="id1" class="Slide" clip-path="url(#presentation_clip_path)">
     <g class="Page">
      <g class="Graphic">
       <g id="id3">
        <rect class="BoundingBox" stroke="none" fill="none" x="0" y="0" width="7855" height="7757"/>
        <defs>
         <clipPath id="clip_path_1" clipPathUnits="userSpaceOnUse">
          <path d="M 0,0 L 7854,0 7854,7756 0,7756 0,0 Z"/>
         </clipPath>
        </defs>
        <g clip-path="url(#clip_path_1)">
         <path fill="rgb(17,17,17)" stroke="none" d="M 1437,1113 L 1473,1113 1444,1099 1437,1113 Z M 1538,1077 L 1568,1055 C 1553,1048 1546,1048 1531,1070 1531,1077 1531,1077 1538,1077 Z M 1269,1251 C 1277,1244 1277,1237 1277,1237 L 1262,1237 1247,1266 1269,1251 Z M 1247,1266 C 1240,1259 1240,1266 1247,1266 Z M 1407,1055 L 1400,1055 1386,1070 1407,1070 1407,1055 Z M 1255,1230 L 1298,1193 C 1306,1186 1306,1179 1306,1171 L 1284,1171 1196,1251 1182,1281 1233,1237 1255,1230 Z"/>
         <path fill="rgb(17,17,17)" stroke="none" d="M 702,1804 C 704,1789 709,1777 716,1764 726,1747 737,1735 753,1724 L 818,1681 855,1637 905,1586 935,1557 964,1535 C 964,1535 964,1535 964,1535 986,1522 1002,1507 1014,1484 1017,1479 1020,1475 1022,1470 L 1051,1433 C 1080,1405 1102,1377 1122,1341 1123,1341 1123,1340 1124,1339 L 1138,1317 1160,1302 1146,1281 1175,1244 C 1233,1201 1277,1142 1335,1099 L 1357,1077 C 1358,1073 1360,1070 1362,1067 1363,1064 1365,1061 1367,1058 1349,1069 1330,1071 1313,1084 1310,1085 1308,1086 1306,1087 1301,1090 1298,1093 1295,1098 1292,1102 1291,1107 1291,1112 1291,1113 1291,1113 1291,1113 1233,1106 1211,1150 1182,1179 L 1182,1237 C 1175,1240 1169,1244 1162,1248 1121,1271 1091,1299 1066,1339 949,1346 949,1492 847,1521 L 840,1521 C 839,1523 838,1525 838,1528 838,1531 839,1533 840,1535 818,1535 804,1550 811,1572 L 796,1608 C 745,1637 753,1688 724,1732 665,1768 644,1841 600,1892 L 622,1928 636,1914 C 657,1879 676,1851 702,1819 L 702,1804 Z M 1392,1033 C 1385,1045 1376,1053 1367,1058 1374,1048 1382,1041 1392,1033 Z M 1393,1033 L 1451,1004 1480,1004 C 1485,1002 1489,1000 1494,997 1510,988 1522,977 1531,960 L 1531,946 C 1533,942 1535,938 1537,934 1560,895 1587,867 1626,844 L 1684,808 1699,793 1728,764 1762,747 1735,757 1633,829 C 1589,866 1531,873 1502,931 L 1524,931 C 1473,946 1422,968 1400,1019 1398,1024 1395,1029 1392,1033 1393,1033 1393,1033 1393,1033 Z M 1800,728 L 1815,728 1762,747 1800,728 Z M 3918,240 L 3961,255 3976,255 C 3999,267 4022,272 4048,272 4059,272 4068,271 4078,269 4097,266 4113,264 4132,264 4162,264 4187,268 4216,276 L 4303,276 C 4311,275 4317,274 4325,274 4344,274 4360,278 4376,288 4381,291 4386,294 4391,298 4391,299 4392,301 4392,302 4392,303 4391,304 4391,306 L 4362,306 C 4361,307 4361,308 4361,309 4361,311 4361,312 4362,313 L 4412,313 C 4428,307 4443,304 4460,304 4462,304 4464,304 4466,304 4375,265 4289,247 4188,247 4182,247 4178,247 4172,247 L 4114,247 C 4043,226 3980,216 3906,216 3887,216 3871,217 3852,218 L 3867,218 3918,240 Z M 4507,313 C 4513,313 4516,314 4517,316 4507,313 4496,313 4485,313 4479,310 4472,307 4466,304 4480,305 4493,307 4507,313 Z M 4522,327 L 4539,334 C 4533,325 4525,319 4517,316 4518,319 4517,323 4522,327 Z M 4558,342 L 4543,342 C 4542,339 4541,337 4539,334 L 4558,342 Z M 4995,502 C 4999,507 5003,510 5009,513 5019,519 5029,522 5042,522 5051,522 5059,520 5067,517 L 5111,517 C 5101,508 5092,502 5081,496 5048,477 5017,468 4980,466 L 4929,451 4965,473 4995,502 Z M 4747,407 C 4747,415 4754,422 4762,429 L 4776,429 4813,407 C 4810,406 4807,404 4804,402 4767,381 4732,369 4689,364 L 4740,393 4747,407 Z M 5286,604 L 5344,640 C 5329,618 5315,604 5286,604 Z"/>
         <path fill="rgb(17,17,17)" stroke="none" d="M 7243,5420 L 7286,5311 C 7301,5275 7330,5180 7345,5122 7347,5107 7352,5095 7359,5082 7362,5078 7364,5075 7367,5071 L 7374,5071 7374,4991 C 7410,4984 7403,4948 7410,4926 L 7468,4584 C 7488,4506 7496,4438 7496,4358 7496,4278 7488,4210 7468,4133 7470,4125 7470,4119 7470,4111 7470,4086 7464,4064 7451,4042 7446,4032 7440,4025 7432,4016 L 7432,3703 C 7410,3638 7454,3565 7403,3507 L 7345,3274 C 7345,3272 7346,3269 7346,3267 7346,3264 7345,3262 7345,3260 L 7330,3216 C 7328,3211 7327,3207 7327,3201 7327,3196 7328,3192 7330,3187 L 7337,3187 C 7359,3187 7359,3150 7359,3121 7355,3093 7347,3070 7333,3045 7332,3044 7331,3043 7330,3041 L 7308,3012 C 7307,3010 7306,3008 7304,3006 7297,2993 7294,2981 7294,2966 7294,2964 7294,2963 7294,2961 7294,2953 7294,2945 7294,2936 7294,2894 7290,2857 7279,2816 L 7279,2772 C 7265,2721 7250,2663 7236,2612 L 7221,2576 C 7219,2572 7217,2570 7215,2566 7202,2543 7195,2522 7192,2496 7188,2474 7181,2457 7171,2438 7170,2438 7170,2438 7170,2437 L 7126,2365 C 7123,2362 7120,2360 7117,2358 7107,2352 7098,2350 7088,2350 7086,2350 7084,2350 7083,2350 L 7075,2350 7075,2328 7061,2328 7061,2270 7054,2270 7054,2255 C 7054,2254 7054,2253 7054,2252 7054,2251 7054,2249 7054,2248 L 7054,2234 C 7061,2219 7061,2212 7046,2197 7038,2189 7031,2180 7025,2170 7022,2164 7020,2159 7017,2154 L 7003,2110 C 6998,2093 6992,2079 6983,2064 6974,2048 6965,2036 6952,2023 6940,2011 6931,2000 6923,1986 6920,1981 6918,1977 6915,1972 L 6864,1855 C 6859,1843 6854,1833 6848,1822 6839,1807 6831,1796 6821,1783 L 6777,1724 C 6772,1718 6769,1713 6765,1706 6757,1693 6752,1681 6748,1666 L 6734,1644 C 6732,1643 6732,1642 6731,1640 6727,1633 6725,1626 6725,1618 6725,1615 6725,1612 6726,1608 6726,1601 6725,1596 6721,1590 6719,1585 6716,1582 6712,1579 L 6683,1557 6683,1572 C 6690,1586 6683,1593 6675,1593 L 6661,1593 6683,1666 6699,1694 C 6692,1685 6683,1678 6673,1671 6660,1664 6647,1660 6632,1659 L 6632,1608 C 6610,1521 6515,1513 6472,1455 6470,1450 6468,1447 6465,1442 6455,1425 6443,1412 6425,1402 6414,1396 6404,1392 6392,1390 L 6333,1324 C 6270,1233 6201,1166 6108,1106 L 6050,1062 6020,1040 C 5970,990 5948,909 5860,909 L 5802,873 5737,822 C 5734,817 5732,812 5729,807 5714,781 5696,763 5670,748 5650,736 5630,730 5606,728 5585,709 5566,695 5542,681 5508,661 5477,649 5438,640 L 5453,655 5489,684 5584,735 C 5589,738 5594,740 5599,743 5653,774 5694,807 5737,851 5767,881 5797,903 5834,925 5838,927 5842,929 5846,931 L 5889,968 C 5897,975 5904,982 5897,990 L 5889,990 5824,968 C 5777,959 5738,944 5696,920 5690,917 5685,913 5678,909 L 5591,866 5497,815 5482,815 C 5460,808 5453,786 5424,779 L 5366,764 5184,728 C 5179,725 5175,723 5170,720 5149,708 5133,695 5118,677 5097,676 5079,671 5061,660 5058,658 5056,657 5053,655 L 4980,626 C 4907,611 4846,594 4776,568 L 4733,553 4660,531 4623,531 4609,509 4609,502 4493,502 4449,466 4420,480 4391,495 4376,495 4311,458 C 4267,502 4231,444 4194,451 L 4121,429 C 4108,437 4094,441 4078,441 4062,441 4048,437 4034,429 L 3947,429 C 3941,428 3937,427 3932,424 3925,420 3920,415 3916,408 3912,401 3910,394 3910,386 3910,386 3910,386 3910,386 L 3932,371 3976,371 C 3976,371 3976,372 3977,372 3980,379 3982,385 3983,393 3983,407 3998,407 4020,407 L 4034,407 4005,364 C 4002,361 3999,359 3995,357 3982,349 3969,346 3955,346 3947,346 3940,347 3932,349 L 3859,371 3852,371 C 3874,386 3867,393 3867,407 L 3750,407 3721,393 3663,364 3656,364 3605,349 3437,349 3467,335 3525,320 3547,320 3670,298 3750,284 3794,269 3714,269 C 3671,260 3634,257 3590,257 3546,257 3509,260 3467,269 L 3372,269 3125,262 C 3023,269 2921,262 2841,349 2659,320 2499,400 2339,480 L 2179,546 C 2114,555 2060,573 2003,606 1968,627 1939,648 1910,677 L 1931,677 1968,655 2026,618 2121,575 2193,560 C 2204,553 2213,547 2224,541 2262,519 2296,505 2339,495 L 2404,473 2419,473 C 2426,487 2455,473 2470,473 L 2484,473 C 2492,473 2492,480 2484,480 L 2441,509 2513,487 2572,473 2477,524 2382,553 C 2377,555 2372,557 2367,560 2356,566 2347,575 2341,586 2340,587 2339,588 2339,589 L 2317,626 2339,626 2368,611 C 2377,597 2388,588 2402,579 2412,573 2422,570 2433,568 L 2543,531 2579,531 C 2580,531 2581,530 2583,530 2584,530 2585,531 2587,531 2588,532 2589,533 2590,534 2590,536 2591,537 2591,538 2591,540 2590,541 2590,542 2589,544 2588,545 2587,545 2586,546 2586,546 2586,546 2572,560 2543,568 2528,582 L 2543,582 2310,648 2033,764 C 2013,783 1993,797 1969,810 1935,830 1904,842 1866,851 1840,874 1816,891 1786,909 1771,917 1758,924 1742,931 L 1684,946 C 1682,950 1681,953 1678,957 1668,974 1656,987 1638,997 1623,1006 1608,1010 1589,1011 L 1568,1048 C 1544,1082 1517,1106 1481,1127 1481,1127 1481,1128 1480,1128 L 1473,1128 1473,1120 1458,1135 1444,1150 1371,1164 1335,1164 1306,1201 C 1298,1208 1298,1215 1306,1215 L 1313,1215 C 1269,1259 1240,1317 1182,1339 L 1087,1448 C 1044,1535 956,1564 898,1637 840,1710 796,1921 614,1950 L 600,1928 585,1964 C 581,1979 575,1992 568,2005 564,2012 561,2017 556,2023 540,2047 527,2068 513,2093 496,2121 483,2146 469,2175 464,2185 461,2194 461,2204 461,2207 461,2209 462,2212 462,2214 462,2215 462,2217 462,2236 457,2252 448,2268 448,2269 447,2269 447,2270 L 411,2350 425,2350 C 447,2350 447,2372 454,2394 L 513,2314 C 513,2312 514,2311 515,2310 526,2291 538,2276 556,2263 559,2261 561,2260 564,2259 587,2245 604,2228 617,2205 619,2202 620,2200 622,2197 L 644,2175 673,2146 716,2066 731,2066 C 738,2074 738,2074 745,2066 L 760,2037 796,2037 796,2095 833,2059 C 836,2053 838,2048 838,2041 838,2034 836,2028 833,2023 833,2022 833,2021 833,2020 833,2015 834,2010 836,2006 838,2004 839,2002 840,2001 845,1995 850,1989 854,1982 857,1976 859,1971 862,1964 864,1955 867,1948 872,1940 880,1925 891,1914 906,1906 911,1903 915,1901 920,1899 L 942,1884 964,1863 C 985,1847 1000,1831 1013,1808 1016,1802 1019,1797 1022,1790 L 1007,1768 C 1007,1761 1015,1746 1022,1739 L 1058,1739 1102,1681 1146,1659 1160,1659 C 1003,1829 883,1986 760,2183 729,2231 703,2273 674,2323 544,2548 455,2750 374,2998 L 338,2998 302,2969 C 287,2954 294,2918 272,2903 L 280,2903 C 302,2867 272,2816 302,2779 331,2743 309,2677 236,2692 163,2707 127,2728 141,2801 156,2874 69,2932 61,3012 54,3092 25,3049 40,3078 L 40,3361 C 47,3420 3,3492 98,3514 L 192,3580 C 200,3616 156,3696 258,3674 244,3802 237,3910 236,4038 236,4108 242,4178 243,4248 236,4219 236,4190 229,4154 L 207,4176 207,4162 171,4162 C 171,4198 163,4220 141,4227 136,4237 134,4247 134,4258 134,4260 134,4262 134,4264 134,4271 141,4285 149,4278 156,4271 178,4293 200,4307 222,4322 185,4329 171,4322 156,4315 156,4329 156,4344 L 156,4365 192,4475 C 192,4496 185,4518 185,4540 185,4561 190,4580 200,4598 L 178,4598 178,4576 127,4562 127,4518 C 128,4512 128,4507 128,4500 128,4494 128,4488 127,4482 116,4436 110,4397 105,4351 94,4283 89,4224 89,4155 89,4134 90,4117 91,4096 90,4094 90,4092 90,4090 90,4079 93,4070 98,4060 L 98,4074 C 101,4087 104,4098 105,4111 105,4111 105,4111 105,4112 105,4122 107,4131 112,4140 120,4154 127,4169 141,4169 156,4169 149,4162 149,4154 148,4141 146,4131 141,4118 129,4086 122,4058 120,4024 118,4009 113,3998 106,3985 104,3980 101,3977 98,3973 88,3954 83,3937 83,3916 83,3913 83,3910 83,3907 L 83,3849 C 83,3827 91,3805 91,3783 91,3781 91,3779 91,3777 91,3770 90,3765 86,3759 85,3757 84,3756 83,3754 L 76,3754 C 18,3783 25,3769 3,3871 L 3,4002 C 3,4053 -4,4104 3,4154 3,4160 3,4165 3,4170 3,4224 7,4269 18,4322 L 18,4322 C 19,4328 19,4334 19,4340 19,4346 19,4352 18,4358 18,4361 18,4363 18,4366 18,4387 20,4404 25,4424 L 25,4424 C 30,4451 33,4475 33,4504 33,4509 33,4513 32,4518 31,4529 31,4537 31,4548 31,4582 36,4610 47,4642 48,4647 48,4651 48,4657 48,4662 48,4666 47,4671 47,4675 47,4678 47,4682 47,4699 49,4713 54,4729 61,4752 66,4771 69,4795 77,4852 88,4900 105,4955 113,4980 117,5002 120,5028 122,5042 127,5054 134,5067 137,5071 139,5075 141,5079 146,5084 149,5090 153,5096 166,5119 173,5140 178,5166 184,5192 190,5213 200,5239 L 229,5340 C 238,5380 251,5412 271,5447 272,5448 272,5449 272,5450 300,5500 317,5546 331,5602 L 345,5639 C 353,5647 358,5655 364,5665 373,5680 378,5694 382,5712 385,5726 390,5737 397,5750 401,5757 405,5763 411,5770 413,5772 414,5775 416,5778 421,5787 424,5796 425,5806 433,5828 440,5835 454,5828 L 462,5828 462,5893 498,5966 534,6039 614,6126 644,6155 C 665,6177 694,6192 709,6228 L 738,6250 C 745,6254 749,6260 753,6266 757,6273 759,6279 760,6286 L 774,6337 C 778,6345 781,6351 785,6359 795,6375 805,6389 818,6403 L 847,6417 869,6417 C 870,6418 871,6418 872,6418 874,6420 876,6421 877,6424 878,6426 879,6428 879,6431 879,6434 878,6436 877,6438 877,6439 877,6439 876,6439 876,6445 875,6451 875,6457 875,6464 876,6469 876,6475 878,6480 880,6484 882,6488 888,6498 895,6506 905,6512 L 920,6512 C 949,6505 978,6526 1007,6563 L 1015,6563 C 1015,6555 1022,6555 1015,6548 L 1015,6534 C 1015,6526 1022,6519 1029,6526 1036,6531 1040,6536 1044,6543 1049,6551 1051,6559 1051,6568 1051,6569 1051,6569 1051,6570 L 1051,6585 C 1057,6617 1065,6643 1080,6672 1116,6694 1116,6694 1116,6679 1116,6665 1116,6665 1131,6665 L 1160,6665 1175,6686 1233,6723 C 1284,6781 1364,6774 1422,6810 L 1546,6934 1560,6934 C 1564,6943 1568,6951 1573,6960 1593,6994 1617,7018 1650,7037 1659,7043 1667,7046 1677,7050 1685,7064 1695,7073 1709,7081 1722,7089 1735,7093 1749,7094 1749,7130 1793,7138 1830,7145 1836,7152 1843,7158 1851,7163 1863,7169 1874,7173 1888,7174 L 1902,7174 C 1911,7183 1919,7189 1930,7195 1949,7207 1969,7212 1991,7212 1999,7212 2004,7211 2011,7210 L 2077,7269 2252,7334 2252,7349 C 2288,7429 2375,7399 2433,7421 L 2513,7450 2543,7450 C 2630,7472 2717,7516 2812,7487 2810,7492 2810,7496 2810,7501 2810,7507 2810,7511 2812,7516 2892,7567 2986,7516 3074,7545 3098,7554 3121,7558 3147,7558 3165,7558 3180,7556 3197,7552 L 3205,7552 3263,7567 3285,7567 3350,7581 3372,7581 C 3378,7578 3383,7577 3390,7577 3397,7577 3403,7578 3408,7581 3446,7595 3478,7604 3518,7610 L 3561,7610 C 3569,7606 3577,7604 3587,7604 3596,7604 3604,7606 3612,7610 L 3896,7610 C 3908,7612 3919,7612 3932,7612 3960,7612 3984,7610 4012,7603 L 4085,7603 4121,7589 4362,7589 4405,7574 4442,7552 4602,7552 4602,7596 4507,7596 4420,7610 C 4391,7618 4369,7610 4347,7618 4324,7628 4302,7632 4277,7632 4276,7632 4275,7632 4274,7632 L 4180,7654 4151,7654 C 4137,7652 4125,7651 4111,7651 4086,7651 4065,7654 4041,7661 L 3910,7661 C 3900,7666 3890,7668 3878,7668 3866,7668 3856,7666 3845,7661 L 3518,7661 C 3511,7660 3506,7660 3500,7660 3482,7660 3468,7664 3453,7672 3447,7676 3442,7679 3437,7683 L 3416,7683 3394,7669 3394,7647 3307,7647 C 3275,7634 3246,7627 3212,7625 L 3030,7625 2979,7610 2943,7596 2790,7567 2754,7567 2717,7552 2564,7501 2463,7472 2302,7472 C 2295,7472 2295,7480 2295,7487 L 2310,7487 C 2404,7523 2499,7552 2593,7596 L 2615,7596 2681,7610 2783,7640 2877,7640 2921,7654 2972,7676 3096,7698 3176,7712 3256,7727 3314,7727 3372,7741 3598,7741 3670,7756 3838,7756 3910,7741 4070,7741 C 4100,7741 4114,7734 4121,7720 L 4194,7720 C 4196,7720 4198,7720 4200,7720 4214,7720 4225,7717 4237,7710 4243,7707 4247,7703 4252,7698 4245,7705 4253,7705 4260,7712 L 4289,7712 4289,7698 C 4289,7691 4289,7691 4303,7683 4318,7676 4347,7676 4354,7691 L 4383,7691 4405,7676 C 4420,7676 4420,7676 4420,7683 L 4471,7683 4507,7669 4565,7640 C 4573,7661 4594,7669 4660,7654 L 4754,7625 4842,7625 C 4907,7618 4987,7625 5038,7574 L 5053,7574 5082,7552 5162,7530 C 5211,7520 5251,7505 5294,7480 5299,7477 5303,7475 5307,7472 L 5337,7458 5344,7458 5409,7414 5438,7399 5475,7385 5504,7385 C 5533,7378 5533,7378 5540,7356 5548,7334 5540,7349 5526,7349 L 5518,7349 5548,7312 5562,7312 C 5584,7305 5598,7298 5613,7305 L 5628,7305 C 5636,7303 5642,7300 5649,7296 5664,7287 5675,7276 5684,7261 5688,7254 5691,7247 5693,7239 5715,7210 5773,7225 5788,7181 L 6100,6956 C 6181,6948 6202,6876 6261,6832 6319,6788 6428,6752 6479,6672 L 6544,6643 6552,6643 C 6558,6644 6563,6645 6569,6645 6582,6645 6594,6642 6605,6635 6617,6628 6625,6620 6632,6609 6635,6603 6637,6598 6639,6592 L 6639,6621 C 6697,6592 6770,6643 6828,6585 6886,6526 6828,6388 6901,6308 L 6952,6272 C 6953,6270 6953,6269 6954,6268 7011,6170 7043,6078 7061,5966 L 7075,5952 C 7075,5930 7075,5901 7105,5886 7112,5881 7117,5875 7121,5867 7127,5857 7130,5847 7130,5835 7130,5822 7127,5812 7121,5802 7120,5801 7120,5800 7119,5799 L 7105,5799 C 7107,5795 7108,5792 7108,5788 7108,5784 7107,5780 7105,5777 7156,5777 7163,5726 7192,5704 L 7192,5602 C 7191,5600 7191,5598 7191,5595 7191,5593 7191,5590 7192,5588 7196,5570 7198,5555 7199,5537 L 7243,5420 Z M 6755,1768 L 6748,1768 6734,1753 6719,1739 C 6717,1727 6714,1718 6708,1707 L 6755,1768 Z"/>
         <path fill="rgb(17,17,17)" stroke="none" d="M 1917,677 L 1895,691 1866,713 1902,698 1917,677 Z M 2361,531 L 2368,531 2390,517 2361,517 2361,531 Z M 2171,604 L 2164,611 2171,611 2171,604 Z M 665,1906 L 636,1935 651,1935 C 651,1935 651,1935 651,1935 656,1933 659,1929 662,1925 664,1920 666,1915 666,1910 666,1909 666,1908 665,1906 Z M 884,1652 C 887,1647 889,1643 892,1639 898,1628 902,1619 905,1608 890,1617 879,1629 869,1644 862,1652 862,1659 869,1659 L 884,1652 Z M 796,1761 L 796,1746 C 782,1746 760,1768 738,1768 L 738,1783 C 760,1804 767,1797 796,1761 Z M 5373,669 L 5380,669 5344,648 5373,669 Z M 5191,568 C 5227,560 5249,597 5278,604 L 5286,604 5264,589 5191,553 5111,517 5133,531 5191,568 Z M 4689,371 L 4682,371 4594,357 4631,357 4689,371 Z M 4929,451 C 4898,434 4869,425 4834,422 L 4929,451 Z M 4180,422 C 4182,419 4183,417 4185,414 4190,405 4193,396 4194,386 L 4158,386 4136,407 4165,429 4180,422 Z M 4529,444 C 4529,445 4529,446 4529,447 4529,449 4529,450 4529,451 L 4529,444 Z M 7767,4249 L 7767,4220 7789,4220 C 7796,4220 7803,4198 7796,4191 7789,4184 7789,4140 7774,4133 7773,4132 7772,4132 7770,4131 7767,4129 7764,4126 7762,4123 7760,4119 7759,4116 7759,4112 7759,4112 7759,4111 7759,4111 L 7774,4082 C 7775,4079 7775,4077 7775,4074 7775,4072 7775,4070 7774,4067 L 7759,4067 7745,4045 C 7738,4067 7730,4089 7716,4096 7715,4099 7715,4101 7715,4104 7715,4106 7715,4108 7716,4111 7716,4118 7716,4125 7708,4125 L 7701,4125 C 7700,4133 7698,4140 7694,4147 7690,4152 7687,4157 7684,4163 7674,4179 7669,4194 7665,4213 7664,4216 7664,4218 7664,4221 7664,4227 7665,4231 7667,4236 7669,4238 7670,4240 7672,4242 L 7679,4242 C 7674,4257 7671,4270 7671,4286 7671,4291 7672,4295 7672,4300 L 7672,4329 C 7671,4342 7669,4353 7665,4365 L 7658,4365 7628,4416 7628,4460 C 7629,4465 7629,4469 7629,4474 7629,4494 7625,4511 7615,4528 7612,4532 7610,4536 7607,4540 L 7592,4540 7578,4526 C 7577,4524 7576,4523 7575,4522 7569,4511 7566,4501 7566,4489 7566,4481 7568,4475 7570,4467 7576,4436 7579,4410 7579,4378 7579,4366 7578,4356 7578,4344 7578,4336 7570,4329 7570,4329 7569,4330 7569,4331 7568,4333 7564,4339 7563,4344 7563,4351 L 7563,4395 C 7563,4409 7556,4438 7541,4446 7527,4453 7534,4460 7534,4467 L 7519,4511 7541,4547 C 7527,4562 7512,4555 7505,4540 L 7505,4613 7527,4613 7527,4642 C 7513,4676 7506,4707 7505,4744 7504,4749 7504,4753 7504,4758 7504,4763 7504,4768 7505,4773 7505,4774 7505,4775 7505,4777 7505,4809 7500,4837 7490,4868 7489,4875 7489,4882 7489,4889 7489,4897 7489,4904 7490,4911 L 7468,4962 C 7463,4981 7456,4996 7447,5013 7447,5013 7447,5013 7447,5013 L 7425,5057 7359,5253 C 7381,5319 7330,5362 7301,5406 7302,5415 7303,5423 7303,5432 7303,5468 7295,5499 7276,5530 7267,5547 7257,5560 7243,5573 L 7243,5602 C 7243,5610 7250,5617 7265,5610 L 7294,5588 7308,5559 7323,5559 C 7330,5566 7337,5566 7352,5551 L 7367,5551 C 7369,5554 7371,5557 7373,5560 7377,5566 7378,5571 7378,5578 7378,5584 7377,5590 7374,5595 7369,5614 7366,5631 7366,5650 7366,5651 7366,5652 7367,5653 7367,5661 7367,5668 7374,5668 L 7388,5668 C 7396,5675 7403,5668 7410,5646 L 7425,5610 7447,5610 C 7476,5602 7476,5602 7490,5566 L 7527,5501 7548,5457 7578,5384 C 7577,5382 7577,5381 7577,5379 7577,5358 7582,5340 7593,5321 7595,5318 7597,5315 7599,5311 7601,5309 7602,5307 7604,5305 7608,5298 7610,5291 7610,5283 7610,5278 7609,5273 7607,5268 7607,5253 7607,5246 7621,5224 L 7643,5195 7679,5122 C 7682,5099 7687,5079 7694,5057 7709,5026 7716,4997 7716,4962 7721,4938 7727,4919 7738,4897 L 7738,4860 C 7730,4846 7730,4846 7738,4817 7745,4787 7745,4802 7752,4802 7754,4804 7755,4805 7756,4807 7758,4811 7760,4816 7760,4821 7760,4822 7759,4823 7759,4824 L 7774,4787 C 7784,4766 7788,4746 7789,4722 L 7789,4700 C 7789,4693 7789,4678 7781,4678 L 7781,4707 C 7767,4707 7759,4722 7745,4729 7749,4709 7751,4692 7752,4671 L 7781,4657 C 7785,4653 7787,4650 7790,4646 7794,4638 7796,4630 7796,4620 7796,4618 7796,4615 7796,4613 7795,4609 7795,4606 7795,4602 7795,4598 7795,4595 7796,4591 7806,4557 7810,4527 7810,4491 7810,4491 7810,4490 7810,4489 L 7810,4475 7832,4402 7839,4402 C 7842,4400 7843,4398 7844,4396 7846,4393 7847,4389 7847,4385 7847,4383 7847,4382 7847,4380 L 7839,4380 C 7838,4375 7838,4370 7838,4365 7838,4353 7840,4343 7846,4332 7849,4328 7851,4325 7854,4322 7851,4312 7848,4305 7843,4296 7833,4279 7821,4266 7803,4256 7798,4253 7794,4251 7789,4249 L 7767,4249 Z M 658,2241 C 659,2238 659,2236 659,2234 659,2231 659,2229 658,2226 L 644,2212 629,2226 607,2270 C 607,2292 585,2314 585,2336 L 585,2350 593,2350 658,2241 Z M 7672,4045 C 7672,4045 7672,4045 7673,4045 7684,4025 7689,4005 7689,3983 7689,3974 7688,3967 7687,3958 7686,3956 7686,3954 7686,3951 7686,3945 7688,3939 7691,3933 7694,3928 7697,3925 7701,3922 L 7708,3922 7708,3907 7694,3893 7687,3893 C 7679,3900 7672,3914 7665,3914 7658,3914 7658,3922 7658,3936 L 7658,3958 C 7655,3969 7655,3978 7655,3989 7655,4009 7658,4026 7665,4045 L 7672,4045 Z M 956,6555 C 949,6555 956,6570 956,6577 L 1015,6636 1022,6636 C 1007,6614 1000,6592 1007,6585 997,6584 989,6581 980,6576 976,6574 974,6572 971,6570 L 956,6555 Z M 7730,3980 L 7738,3980 C 7739,3972 7739,3966 7739,3958 7739,3950 7739,3944 7738,3936 7716,3943 7716,3943 7716,3980 7716,4016 7723,3987 7730,3980 Z"/>
         <path fill="rgb(17,17,17)" stroke="none" d="M 7759,4511 L 7759,4511 C 7760,4510 7761,4508 7762,4507 7766,4500 7768,4493 7768,4485 7768,4481 7768,4478 7767,4475 7767,4467 7759,4460 7759,4467 L 7745,4467 7745,4482 C 7745,4511 7752,4518 7759,4511 L 7759,4511 Z M 7767,3914 L 7759,3914 7759,3958 7759,3958 C 7765,3947 7767,3937 7767,3925 7767,3921 7767,3918 7767,3914 L 7767,3914 Z M 1240,6737 L 1226,6737 1226,6752 1240,6766 1255,6766 1255,6752 1240,6737 Z M 7541,4315 C 7541,4307 7541,4307 7534,4307 L 7541,4315 Z M 716,6294 L 753,6330 724,6286 716,6294 Z"/>
         <path fill="rgb(17,17,17)" stroke="none" d="M 6755,1710 L 6741,1688 6734,1688 6755,1710 Z M 418,2357 L 418,2357 C 420,2356 421,2354 422,2352 424,2349 425,2346 425,2343 L 425,2357 418,2357 Z M 1189,6730 L 1182,6730 C 1189,6737 1196,6730 1189,6723 L 1189,6730 Z M 1204,6781 L 1211,6781 1204,6774 1204,6781 1204,6781 Z"/>
         <path fill="rgb(246,246,246)" stroke="none" d="M 5104,3865 L 5104,2325 C 5104,2224 5023,2143 4922,2143 L 2934,2143 C 2832,2143 2751,2224 2751,2325 L 2751,3865 C 2751,3967 2832,4048 2934,4048 L 4922,4048 C 5023,4048 5104,3967 5104,3865 Z M 2934,2272 L 4919,2272 C 4950,2272 4975,2297 4975,2328 L 4975,2591 2880,2591 2880,2325 C 2880,2295 2903,2272 2934,2272 Z M 2880,3868 L 2880,2715 4977,2715 4977,3865 C 4977,3896 4952,3921 4922,3921 L 2934,3921 C 2903,3921 2880,3898 2880,3868 Z M 3217,2429 C 3217,2386 3252,2353 3293,2353 3333,2353 3369,2388 3369,2429 3369,2472 3333,2505 3293,2505 3252,2505 3217,2472 3217,2429 Z M 3470,2429 C 3470,2386 3505,2353 3546,2353 3586,2353 3622,2388 3622,2429 3622,2472 3586,2505 3546,2505 3505,2505 3470,2472 3470,2429 Z M 2964,2429 C 2964,2386 2999,2353 3040,2353 3083,2353 3116,2388 3116,2429 3116,2472 3080,2505 3040,2505 2999,2507 2964,2472 2964,2429 Z M 4241,3572 L 4535,3324 4241,3076 C 4213,3053 4211,3013 4234,2988 4257,2960 4297,2957 4322,2980 L 4671,3276 C 4687,3289 4694,3306 4694,3324 4694,3342 4687,3360 4671,3372 L 4322,3668 C 4310,3678 4297,3683 4282,3683 4264,3683 4246,3676 4234,3661 4211,3635 4213,3595 4241,3572 Z M 3184,3372 C 3169,3360 3161,3342 3161,3324 3161,3306 3169,3289 3184,3276 L 3533,2980 C 3561,2957 3599,2960 3622,2988 3644,3016 3642,3053 3614,3076 L 3321,3324 3614,3572 C 3642,3595 3644,3635 3622,3661 3609,3676 3591,3683 3574,3683 3558,3683 3546,3678 3533,3668 L 3184,3372 Z M 3720,3671 L 4016,2930 C 4029,2897 4067,2881 4100,2894 4133,2907 4148,2945 4135,2978 L 3837,3719 C 3826,3744 3804,3759 3778,3759 3771,3759 3763,3757 3756,3754 3723,3739 3708,3704 3720,3671 Z"/>
         <path fill="rgb(246,246,246)" stroke="none" d="M 1570,5594 C 1538,5586 1510,5574 1485,5557 1460,5541 1440,5520 1425,5494 1410,5469 1402,5439 1402,5405 L 1402,4780 C 1402,4746 1410,4716 1425,4690 1440,4665 1460,4644 1486,4627 1511,4611 1539,4598 1571,4589 1603,4581 1635,4577 1669,4577 1702,4577 1734,4581 1766,4589 1798,4598 1826,4611 1851,4627 1876,4644 1896,4665 1910,4690 1925,4716 1933,4746 1933,4780 L 1933,4880 1832,4880 C 1809,4880 1790,4873 1775,4859 1760,4846 1752,4828 1752,4807 L 1752,4806 C 1752,4797 1751,4788 1749,4779 1747,4770 1743,4762 1737,4755 1731,4748 1722,4743 1711,4739 1700,4735 1685,4733 1667,4733 1650,4733 1636,4735 1626,4740 1615,4744 1606,4749 1600,4756 1594,4762 1589,4769 1587,4777 1585,4785 1584,4793 1584,4799 L 1584,5388 C 1584,5401 1592,5414 1608,5427 1624,5440 1644,5446 1667,5446 1691,5446 1711,5441 1728,5430 1745,5419 1753,5407 1753,5392 L 1753,5379 C 1753,5358 1760,5341 1772,5326 1784,5311 1802,5304 1826,5304 L 1933,5304 1933,5405 C 1933,5439 1925,5469 1910,5494 1894,5520 1874,5541 1850,5557 1825,5574 1797,5586 1765,5594 1733,5602 1701,5607 1667,5607 1634,5607 1602,5602 1570,5594 Z M 2649,5445 C 2651,5449 2654,5452 2658,5454 2665,5460 2672,5467 2679,5477 2687,5487 2690,5500 2690,5515 L 2690,5600 2414,5600 2414,5515 C 2414,5500 2418,5487 2425,5477 2432,5467 2439,5460 2447,5454 2451,5452 2454,5449 2457,5445 2459,5441 2460,5435 2460,5425 L 2460,5173 C 2460,5160 2453,5154 2440,5154 L 2303,5154 C 2290,5154 2284,5160 2284,5173 L 2284,5425 C 2284,5435 2285,5441 2287,5445 2289,5449 2293,5452 2297,5454 2304,5460 2312,5467 2319,5477 2326,5487 2329,5500 2329,5515 L 2329,5600 2052,5600 2052,5515 C 2052,5500 2056,5487 2063,5477 2070,5467 2077,5460 2084,5454 2089,5452 2092,5449 2095,5445 2097,5441 2098,5435 2098,5425 L 2099,5425 2099,5390 2099,4768 2098,4768 C 2098,4759 2097,4753 2095,4749 2092,4745 2089,4742 2084,4738 2077,4733 2070,4725 2063,4715 2056,4705 2052,4693 2052,4678 L 2052,4593 2329,4593 2329,4678 C 2329,4693 2326,4705 2319,4715 2312,4725 2304,4733 2297,4738 2293,4742 2289,4745 2287,4749 2285,4753 2284,4759 2284,4768 L 2284,4977 C 2284,4984 2286,4989 2290,4991 2295,4994 2299,4995 2304,4995 L 2441,4995 C 2454,4995 2460,4989 2460,4977 L 2460,4768 C 2460,4759 2459,4753 2457,4749 2454,4745 2451,4742 2447,4738 2439,4733 2432,4725 2425,4715 2418,4705 2414,4693 2414,4678 L 2414,4593 2690,4593 2690,4678 C 2690,4693 2687,4705 2679,4715 2672,4725 2665,4733 2658,4738 2654,4742 2651,4745 2649,4749 2646,4753 2644,4759 2644,4768 L 2644,5425 C 2644,5435 2646,5441 2649,5445 Z M 3020,5425 C 3020,5435 3021,5441 3024,5445 3027,5449 3030,5452 3033,5454 3040,5460 3048,5467 3055,5477 3062,5487 3066,5500 3066,5515 L 3066,5600 2790,5600 2790,5515 C 2790,5500 2793,5487 2800,5477 2808,5467 2815,5460 2822,5454 2826,5452 2830,5449 2832,5445 2834,5441 2835,5435 2835,5425 L 2835,4769 2835,4768 C 2835,4759 2834,4753 2832,4749 2830,4745 2826,4742 2822,4738 2815,4733 2808,4725 2800,4715 2793,4705 2790,4693 2790,4678 L 2790,4593 3066,4593 3066,4678 C 3066,4693 3062,4705 3055,4715 3048,4725 3040,4733 3033,4738 3030,4742 3027,4745 3024,4749 3021,4753 3020,4759 3020,4768 L 3020,4769 3020,5425 Z M 3411,4749 C 3407,4749 3403,4751 3399,4755 3395,4759 3393,4763 3393,4768 L 3393,4991 C 3393,4998 3395,5002 3399,5005 3403,5009 3407,5010 3413,5010 L 3582,5010 C 3587,5010 3592,5012 3596,5015 3601,5018 3604,5023 3604,5030 L 3604,5138 C 3604,5151 3597,5157 3584,5157 L 3413,5157 C 3399,5157 3393,5163 3393,5174 L 3393,5426 C 3393,5432 3395,5436 3399,5440 3404,5443 3409,5445 3414,5445 L 3522,5445 C 3530,5445 3536,5440 3541,5432 3542,5427 3545,5422 3547,5415 3550,5409 3554,5403 3559,5398 3564,5392 3570,5388 3577,5384 3584,5380 3593,5378 3603,5378 L 3686,5378 3686,5566 C 3686,5576 3681,5584 3671,5590 3661,5597 3651,5600 3642,5600 L 3554,5600 3246,5600 3165,5600 3165,5519 C 3165,5499 3168,5484 3173,5474 3179,5464 3186,5456 3195,5452 3205,5445 3211,5436 3211,5423 L 3211,4769 C 3211,4755 3205,4745 3193,4738 3184,4734 3177,4727 3172,4717 3168,4708 3165,4694 3165,4676 L 3165,4592 3647,4592 C 3658,4592 3667,4596 3675,4604 3682,4612 3686,4619 3686,4627 L 3686,4804 3607,4804 C 3589,4804 3574,4800 3564,4791 3553,4782 3545,4773 3541,4765 3534,4754 3525,4749 3512,4749 L 3411,4749 3411,4749 Z M 4674,4680 C 4674,4696 4671,4708 4667,4717 4662,4727 4656,4734 4650,4740 4642,4746 4635,4750 4627,4753 L 4627,5425 4628,5425 C 4628,5434 4629,5440 4632,5444 4634,5447 4637,5451 4642,5454 4649,5460 4656,5467 4663,5477 4670,5487 4674,5500 4674,5515 L 4674,5600 4397,5600 4397,5515 C 4397,5500 4400,5487 4407,5477 4415,5467 4422,5460 4429,5454 4433,5451 4437,5447 4439,5444 4441,5440 4442,5434 4442,5425 L 4442,5034 C 4442,5033 4442,5031 4442,5030 4441,5029 4440,5031 4438,5034 4411,5077 4387,5115 4366,5150 4356,5165 4346,5180 4337,5195 4328,5209 4320,5222 4313,5234 4306,5246 4300,5257 4294,5266 4289,5275 4285,5281 4284,5283 4279,5292 4272,5297 4262,5301 4252,5305 4242,5306 4231,5306 4220,5306 4210,5305 4200,5301 4190,5297 4183,5292 4180,5285 4178,5282 4175,5276 4170,5267 4165,5258 4159,5248 4152,5235 4144,5222 4136,5209 4127,5194 4118,5179 4109,5164 4100,5149 4079,5113 4055,5073 4029,5029 4028,5027 4027,5026 4025,5026 4023,5026 4022,5028 4022,5032 L 4022,5425 C 4022,5434 4023,5440 4026,5444 4028,5447 4031,5451 4036,5454 4043,5460 4050,5467 4057,5477 4065,5487 4068,5500 4068,5515 L 4068,5600 3792,5600 3792,5515 C 3792,5500 3796,5487 3803,5477 3810,5467 3817,5460 3824,5454 3828,5451 3831,5447 3833,5444 3835,5441 3837,5436 3838,5427 L 3838,4753 C 3828,4750 3820,4746 3812,4740 3806,4734 3800,4727 3796,4717 3791,4708 3788,4696 3788,4680 L 3788,4593 3979,4593 C 3986,4593 3991,4594 3995,4598 4000,4601 4004,4608 4009,4618 4017,4636 4028,4659 4041,4685 4055,4712 4069,4739 4084,4769 4100,4798 4115,4827 4131,4856 4148,4885 4162,4911 4174,4935 4187,4958 4198,4977 4206,4992 L 4219,5014 C 4223,5020 4228,5024 4232,5024 4237,5025 4241,5021 4246,5014 4257,4995 4270,4975 4282,4952 4293,4933 4305,4912 4319,4889 4332,4866 4346,4841 4362,4816 4396,4759 4435,4693 4479,4620 4484,4608 4490,4601 4496,4598 4501,4594 4508,4593 4515,4593 L 4674,4593 4674,4680 4674,4680 Z M 5480,4594 C 5550,4594 5604,4614 5643,4653 5681,4693 5701,4746 5701,4814 L 5701,5382 C 5701,5449 5681,5502 5643,5542 5604,5581 5550,5601 5480,5601 L 5134,5601 5134,5520 C 5134,5501 5136,5486 5141,5475 5146,5465 5153,5458 5162,5453 5173,5447 5178,5437 5178,5425 L 5178,4773 C 5178,4759 5172,4749 5161,4742 5143,4732 5134,4712 5134,4680 L 5134,4594 5480,4594 5480,4594 Z M 5516,4838 C 5516,4808 5510,4787 5497,4773 5484,4760 5466,4753 5444,4753 L 5383,4753 C 5373,4754 5367,4757 5366,4762 5365,4768 5364,4773 5364,4779 L 5364,5427 C 5364,5432 5365,5436 5366,5440 5367,5443 5372,5445 5379,5446 L 5433,5446 C 5461,5446 5483,5442 5496,5433 5509,5424 5516,5409 5516,5388 L 5516,4838 5516,4838 Z M 6429,4690 C 6429,4705 6425,4718 6418,4727 6411,4737 6404,4745 6396,4750 6393,4754 6390,4758 6388,4761 6385,4765 6384,4771 6383,4779 L 6383,5407 C 6383,5441 6376,5471 6361,5497 6347,5522 6328,5544 6305,5561 6282,5578 6255,5590 6224,5598 6194,5607 6162,5611 6129,5611 6095,5611 6063,5607 6032,5598 6000,5590 5972,5578 5947,5561 5923,5544 5903,5522 5888,5497 5873,5471 5866,5441 5866,5407 L 5866,4780 C 5866,4772 5865,4766 5862,4762 5859,4758 5856,4754 5851,4752 5844,4747 5837,4740 5830,4729 5824,4719 5820,4705 5820,4688 L 5820,4593 6092,4593 6092,4682 C 6092,4697 6089,4711 6081,4723 6074,4736 6067,4745 6060,4750 6055,4754 6052,4758 6050,4761 6048,4765 6046,4771 6046,4779 L 6046,5360 C 6046,5395 6054,5420 6069,5434 6083,5447 6103,5454 6129,5454 6154,5454 6174,5447 6188,5434 6203,5420 6211,5395 6211,5360 L 6211,4780 C 6211,4772 6209,4764 6205,4758 6201,4751 6196,4746 6192,4742 6185,4738 6178,4731 6173,4721 6168,4711 6165,4697 6165,4680 L 6165,4593 6429,4593 6429,4690 Z"/>
        </g>
       </g>
      </g>
     </g>
    </g>
   </g>
  </g>
 </g>
</svg>